<svg width="151" height="28" viewBox="0 0 151 28" fill="none" xmlns="http://www.w3.org/2000/svg">
<path d="M10.92 11.584C13.3467 11.7707 15.1293 12.3307 16.268 13.264C17.4067 14.1973 17.976 15.2987 17.976 16.568C17.976 18.304 17.2947 19.648 15.932 20.6C14.5693 21.5333 12.6747 22 10.248 22C9.70667 22 9.24933 21.9907 8.876 21.972C7.644 21.9347 6.44 21.916 5.264 21.916C3.34133 21.916 1.904 21.944 0.952 22V21.44C1.568 21.4027 2.016 21.328 2.296 21.216C2.59467 21.104 2.79067 20.8893 2.884 20.572C2.996 20.2547 3.052 19.7413 3.052 19.032V5.144C3.052 4.43467 2.996 3.92133 2.884 3.604C2.79067 3.28667 2.59467 3.072 2.296 2.96C2.016 2.848 1.568 2.77333 0.952 2.736V2.176C1.904 2.232 3.32267 2.26 5.208 2.26L8.316 2.232C8.68933 2.21333 9.11867 2.204 9.604 2.204C11.844 2.204 13.552 2.60533 14.728 3.408C15.9227 4.21067 16.52 5.27467 16.52 6.6C16.52 7.68267 16.044 8.69067 15.092 9.624C14.1587 10.5573 12.768 11.192 10.92 11.528V11.584ZM9.24 2.736C8.736 2.736 8.36267 2.80133 8.12 2.932C7.896 3.06267 7.73733 3.296 7.644 3.632C7.55067 3.968 7.504 4.472 7.504 5.144V11.472H8.708C9.92133 11.472 10.7707 11.0613 11.256 10.24C11.7413 9.4 11.984 8.28933 11.984 6.908C11.984 5.508 11.76 4.46267 11.312 3.772C10.8827 3.08133 10.192 2.736 9.24 2.736ZM9.436 21.356C12.0307 21.356 13.328 19.7227 13.328 16.456C13.328 14.9813 12.9547 13.8613 12.208 13.096C11.4613 12.3307 10.2853 11.948 8.68 11.948H7.504V19.032C7.504 19.704 7.55067 20.1987 7.644 20.516C7.73733 20.8333 7.91467 21.0573 8.176 21.188C8.456 21.3 8.876 21.356 9.436 21.356ZM25.0051 19.396C25.0051 20.1613 25.1358 20.6933 25.3971 20.992C25.6584 21.272 26.1251 21.412 26.7971 21.412V22C24.8558 21.9253 23.6051 21.888 23.0451 21.888C22.4104 21.888 21.1224 21.9253 19.1811 22V21.412C19.8344 21.412 20.2918 21.272 20.5531 20.992C20.8331 20.6933 20.9731 20.1613 20.9731 19.396V3.436C20.9731 2.57733 20.8331 1.952 20.5531 1.56C20.2918 1.168 19.8344 0.971999 19.1811 0.971999V0.384C19.7784 0.439999 20.3571 0.467999 20.9171 0.467999C22.5411 0.467999 23.9038 0.337332 25.0051 0.0759985V19.396ZM31.6844 22.196C30.4897 22.196 29.5937 21.888 28.9964 21.272C28.4177 20.656 28.1284 19.844 28.1284 18.836C28.1284 17.996 28.3431 17.3053 28.7724 16.764C29.2204 16.204 29.7524 15.7747 30.3684 15.476C31.0031 15.1773 31.8057 14.86 32.7764 14.524C33.8031 14.1693 34.5497 13.852 35.0164 13.572C35.5017 13.2733 35.7444 12.872 35.7444 12.368V10.184C35.7444 9.4 35.5577 8.79333 35.1844 8.364C34.8297 7.916 34.2697 7.692 33.5044 7.692C32.6084 7.692 31.9271 7.916 31.4604 8.364C31.9831 8.55067 32.3844 8.83067 32.6644 9.204C32.9631 9.57733 33.1124 10.016 33.1124 10.52C33.1124 11.1547 32.8977 11.6587 32.4684 12.032C32.0391 12.4053 31.5164 12.592 30.9004 12.592C30.2471 12.592 29.7431 12.3867 29.3884 11.976C29.0337 11.5653 28.8564 11.052 28.8564 10.436C28.8564 9.91333 28.9777 9.47467 29.2204 9.12C29.4817 8.74667 29.8737 8.40133 30.3964 8.084C30.9004 7.78533 31.5164 7.552 32.2444 7.384C32.9911 7.216 33.8031 7.132 34.6804 7.132C35.5951 7.132 36.3884 7.22533 37.0604 7.412C37.7324 7.59867 38.2924 7.916 38.7404 8.364C39.1511 8.77467 39.4217 9.27867 39.5524 9.876C39.7017 10.4733 39.7764 11.2853 39.7764 12.312V19.928C39.7764 20.376 39.8137 20.6933 39.8884 20.88C39.9817 21.0667 40.1497 21.16 40.3924 21.16C40.6724 21.16 41.0084 21.0013 41.4004 20.684L41.6804 21.16C40.8404 21.8507 39.8137 22.196 38.6004 22.196C37.5737 22.196 36.8551 21.9907 36.4444 21.58C36.0337 21.1693 35.8191 20.6187 35.8004 19.928C34.8671 21.44 33.4951 22.196 31.6844 22.196ZM33.8404 20.404C34.5684 20.404 35.2031 20.0213 35.7444 19.256V13.516C35.5204 13.8893 35.0444 14.3 34.3164 14.748C33.5884 15.2147 33.0377 15.6813 32.6644 16.148C32.2911 16.6147 32.1044 17.2867 32.1044 18.164C32.1044 18.9293 32.2631 19.4987 32.5804 19.872C32.8977 20.2267 33.3177 20.404 33.8404 20.404ZM49.7606 7.132C50.4513 7.132 51.1046 7.20667 51.7206 7.356C52.3366 7.50533 52.8499 7.71067 53.2606 7.972C53.7459 8.27067 54.1193 8.65333 54.3806 9.12C54.6606 9.568 54.8006 10.0627 54.8006 10.604C54.8006 11.2573 54.5953 11.7987 54.1846 12.228C53.7739 12.6387 53.2419 12.844 52.5886 12.844C51.9353 12.844 51.4126 12.6573 51.0206 12.284C50.6286 11.9107 50.4326 11.4067 50.4326 10.772C50.4326 10.212 50.6099 9.72667 50.9646 9.316C51.3193 8.90533 51.7579 8.62533 52.2806 8.476C52.1313 8.27067 51.8979 8.112 51.5806 8C51.2819 7.86933 50.9553 7.804 50.6006 7.804C49.4806 7.804 48.6033 8.42 47.9686 9.652C47.3526 10.8653 47.0446 12.4613 47.0446 14.44C47.0446 16.4373 47.3993 17.8747 48.1086 18.752C48.8179 19.6293 49.7046 20.068 50.7686 20.068C51.4033 20.068 52.0379 19.9 52.6726 19.564C53.3259 19.228 53.9139 18.64 54.4366 17.8L54.9126 17.968C54.5393 19.1813 53.8859 20.2267 52.9526 21.104C52.0193 21.9627 50.8153 22.392 49.3406 22.392C47.4179 22.392 45.8499 21.7573 44.6366 20.488C43.4233 19.2187 42.8166 17.3333 42.8166 14.832C42.8166 13.1893 43.1153 11.7893 43.7126 10.632C44.3099 9.47467 45.1313 8.60667 46.1766 8.028C47.2219 7.43067 48.4166 7.132 49.7606 7.132ZM70.5952 19.956C70.8939 20.404 71.1366 20.74 71.3232 20.964C71.5099 21.1693 71.7526 21.3187 72.0512 21.412V22C70.5579 21.9253 69.5779 21.888 69.1112 21.888C68.4952 21.888 67.2912 21.9253 65.4992 22V21.412C65.7606 21.412 65.9659 21.3653 66.1152 21.272C66.2646 21.1787 66.3392 21.048 66.3392 20.88C66.3392 20.7867 66.2926 20.6467 66.1992 20.46L63.4272 15.448C63.2406 15.1307 63.0446 14.916 62.8392 14.804C62.6339 14.692 62.3726 14.6173 62.0552 14.58V19.396C62.0552 20.1613 62.1766 20.6933 62.4192 20.992C62.6619 21.272 63.1006 21.412 63.7352 21.412V22C61.8686 21.9253 60.6552 21.888 60.0952 21.888C59.4606 21.888 58.1726 21.9253 56.2312 22V21.412C56.8846 21.412 57.3419 21.272 57.6032 20.992C57.8832 20.6933 58.0232 20.1613 58.0232 19.396V3.436C58.0232 2.57733 57.8832 1.952 57.6032 1.56C57.3419 1.168 56.8846 0.971999 56.2312 0.971999V0.384C56.8286 0.439999 57.4072 0.467999 57.9672 0.467999C59.5912 0.467999 60.9539 0.337332 62.0552 0.0759985V14.048C62.4286 14.0107 62.7459 13.936 63.0072 13.824C63.2872 13.712 63.5299 13.544 63.7352 13.32L65.8632 11.248C66.4792 10.632 66.7872 10.0627 66.7872 9.54C66.7872 9.11067 66.5912 8.77467 66.1992 8.532C65.8072 8.27067 65.2846 8.12133 64.6312 8.084V7.524C65.6579 7.58 66.7499 7.608 67.9072 7.608C69.4566 7.608 70.5486 7.58 71.1832 7.524V8.084C70.0819 8.32667 68.9152 9.04533 67.6832 10.24L65.8912 12.088L70.5952 19.956ZM92.9661 2.176C92.3501 3.78133 91.7528 5.928 91.1741 8.616H90.5581C90.7075 7.75733 90.7821 7.02 90.7821 6.404C90.7821 5.54533 90.6235 4.836 90.3061 4.276C89.6528 3.06267 88.5515 2.456 87.0021 2.456C85.5088 2.456 84.0808 3.11867 82.7181 4.444C81.3741 5.75067 80.2915 7.45867 79.4701 9.568C78.6675 11.6587 78.2661 13.8053 78.2661 16.008C78.2661 17.856 78.5928 19.2467 79.2461 20.18C79.9181 21.0947 80.8515 21.552 82.0461 21.552C82.7555 21.552 83.4928 21.3933 84.2581 21.076C85.0235 20.74 85.6861 20.2827 86.2461 19.704C86.7315 19.1813 87.1515 18.6027 87.5061 17.968C87.8795 17.3147 88.2995 16.4187 88.7661 15.28H89.3821C88.5048 18.5093 87.9541 20.7493 87.7301 22H87.1141C87.1701 21.608 87.1981 21.2907 87.1981 21.048C87.1981 20.5627 87.0768 20.32 86.8341 20.32C86.6848 20.32 86.4981 20.404 86.2741 20.572C85.4155 21.1507 84.5568 21.5987 83.6981 21.916C82.8395 22.2333 81.8688 22.392 80.7861 22.392C78.2848 22.392 76.4088 21.7947 75.1581 20.6C73.9075 19.4053 73.2821 17.688 73.2821 15.448C73.2821 13.2453 73.8608 11.0893 75.0181 8.98C76.1941 6.852 77.8088 5.12533 79.8621 3.8C81.9155 2.456 84.1835 1.784 86.6661 1.784C87.7115 1.784 88.5328 1.94267 89.1301 2.26C89.7461 2.57733 90.3155 3.02533 90.8381 3.604C90.9875 3.772 91.1275 3.856 91.2581 3.856C91.5941 3.856 91.9675 3.296 92.3781 2.176H92.9661ZM91.6915 17.772C91.6915 16.2413 92.0368 14.6453 92.7275 12.984C93.4368 11.3227 94.4728 9.932 95.8355 8.812C97.2168 7.692 98.8595 7.132 100.763 7.132C102.219 7.132 103.339 7.53333 104.123 8.336C104.907 9.12 105.299 10.2587 105.299 11.752C105.299 13.2827 104.945 14.8787 104.235 16.54C103.545 18.2013 102.509 19.592 101.127 20.712C99.7648 21.832 98.1315 22.392 96.2275 22.392C94.7715 22.392 93.6515 22 92.8675 21.216C92.0835 20.4133 91.6915 19.2653 91.6915 17.772ZM100.623 7.692C99.9328 7.692 99.1768 8.35467 98.3555 9.68C97.5341 11.0053 96.8435 12.6293 96.2835 14.552C95.7235 16.4747 95.4435 18.2667 95.4435 19.928C95.4435 20.6 95.5181 21.0853 95.6675 21.384C95.8168 21.6827 96.0595 21.832 96.3955 21.832C97.0861 21.832 97.8328 21.188 98.6355 19.9C99.4568 18.612 100.147 17.016 100.707 15.112C101.267 13.1893 101.547 11.3693 101.547 9.652C101.547 8.924 101.473 8.42 101.323 8.14C101.174 7.84133 100.941 7.692 100.623 7.692ZM126.364 0.103998C127.521 0.103998 128.426 0.346665 129.08 0.831999C129.733 1.31733 130.06 1.97067 130.06 2.792C130.06 3.408 129.808 3.968 129.304 4.472C128.818 4.976 128.212 5.228 127.484 5.228C126.924 5.228 126.485 5.09733 126.168 4.836C125.85 4.57467 125.692 4.20133 125.692 3.716C125.692 3.1 125.888 2.54933 126.28 2.064C126.672 1.57867 127.194 1.21467 127.848 0.971999C127.754 0.859999 127.624 0.775999 127.456 0.719999C127.288 0.645332 127.101 0.607998 126.896 0.607998C126.336 0.607998 125.841 0.794665 125.412 1.168C125.076 1.46667 124.786 1.94267 124.544 2.596C124.301 3.24933 124.021 4.17333 123.704 5.368L123.116 7.524H126.112L125.944 8.084H122.976L117.936 26.872C116.368 26.8907 115.014 27.0213 113.876 27.264L119.028 8.084H114.324L109.228 26.872C107.678 26.8907 106.334 27.0213 105.196 27.264L110.236 8.504L110.348 8.084H107.632L107.8 7.524H110.516C110.889 6.42267 111.328 5.47067 111.832 4.668C112.354 3.86533 112.905 3.23067 113.484 2.764C114.828 1.73733 116.47 1.224 118.412 1.224C119.065 1.224 119.662 1.31733 120.204 1.504C120.745 1.69067 121.202 1.93333 121.576 2.232C121.856 1.93333 122.136 1.65333 122.416 1.392C123.461 0.533332 124.777 0.103998 126.364 0.103998ZM119.168 7.524C119.765 5.35867 120.465 3.72533 121.268 2.624C120.764 2.176 120.073 1.952 119.196 1.952C118.057 1.952 117.124 2.36267 116.396 3.184C115.686 3.98667 115.089 5.26533 114.604 7.02L114.464 7.524H119.168ZM137.792 9.344C137.792 10.8933 136.924 12.2467 135.188 13.404C133.452 14.5613 131.436 15.4573 129.14 16.092C129.028 16.7267 128.972 17.3613 128.972 17.996C128.972 18.9853 129.149 19.6853 129.504 20.096C129.877 20.5067 130.418 20.712 131.128 20.712C131.706 20.712 132.36 20.5347 133.088 20.18C133.816 19.8067 134.525 19.2187 135.216 18.416L135.664 18.64C134.992 19.6853 134.086 20.572 132.948 21.3C131.828 22.028 130.568 22.392 129.168 22.392C127.88 22.392 126.825 22.0467 126.004 21.356C125.182 20.6653 124.772 19.6947 124.772 18.444C124.772 16.7827 125.22 15.0653 126.116 13.292C127.012 11.5187 128.234 10.0533 129.784 8.896C131.333 7.72 133.032 7.132 134.88 7.132C135.738 7.132 136.438 7.328 136.98 7.72C137.521 8.09333 137.792 8.63467 137.792 9.344ZM134.264 7.664C133.722 7.664 133.106 8.04667 132.416 8.812C131.725 9.57733 131.09 10.576 130.512 11.808C129.933 13.0213 129.504 14.272 129.224 15.56C130.549 14.9813 131.576 14.356 132.304 13.684C133.05 13.012 133.638 12.2467 134.068 11.388C134.497 10.5107 134.712 9.57733 134.712 8.588C134.712 8.23333 134.674 7.99067 134.6 7.86C134.525 7.72933 134.413 7.664 134.264 7.664ZM150.917 9.344C150.917 10.8933 150.049 12.2467 148.313 13.404C146.577 14.5613 144.561 15.4573 142.265 16.092C142.153 16.7267 142.097 17.3613 142.097 17.996C142.097 18.9853 142.274 19.6853 142.629 20.096C143.002 20.5067 143.543 20.712 144.253 20.712C144.831 20.712 145.485 20.5347 146.213 20.18C146.941 19.8067 147.65 19.2187 148.341 18.416L148.789 18.64C148.117 19.6853 147.211 20.572 146.073 21.3C144.953 22.028 143.693 22.392 142.293 22.392C141.005 22.392 139.95 22.0467 139.129 21.356C138.307 20.6653 137.897 19.6947 137.897 18.444C137.897 16.7827 138.345 15.0653 139.241 13.292C140.137 11.5187 141.359 10.0533 142.909 8.896C144.458 7.72 146.157 7.132 148.005 7.132C148.863 7.132 149.563 7.328 150.105 7.72C150.646 8.09333 150.917 8.63467 150.917 9.344ZM147.389 7.664C146.847 7.664 146.231 8.04667 145.541 8.812C144.85 9.57733 144.215 10.576 143.637 11.808C143.058 13.0213 142.629 14.272 142.349 15.56C143.674 14.9813 144.701 14.356 145.429 13.684C146.175 13.012 146.763 12.2467 147.193 11.388C147.622 10.5107 147.837 9.57733 147.837 8.588C147.837 8.23333 147.799 7.99067 147.725 7.86C147.65 7.72933 147.538 7.664 147.389 7.664Z" fill="#0B1D03"/>
</svg>
