<svg width="151" height="28" viewBox="0 0 151 28" fill="none" xmlns="http://www.w3.org/2000/svg">
<path d="M10.9238 11.5273C14.834 10.8027 16.5156 8.58789 16.5156 6.60547C16.5156 4.02148 14.2188 2.20312 9.59766 2.20312C8.88672 2.20312 7.02734 2.25781 5.19531 2.25781C3.62305 2.25781 1.88672 2.23047 0.943359 2.17578V2.73633C2.70703 2.81836 3.03516 3.10547 3.03516 5.14258V19.0332C3.03516 21.0703 2.7207 21.3574 0.943359 21.4395V22C1.88672 21.9453 3.5957 21.918 5.25 21.918C7.62891 21.918 9.36523 22 10.2402 22C15.0391 22 17.9648 20.0996 17.9648 16.5723C17.9648 14.3027 16.1602 11.9785 10.9238 11.582V11.5273ZM9.22852 2.73633C11.2109 2.73633 11.9766 4.1582 11.9766 6.90625C11.9766 9.33984 11.334 11.4727 8.69531 11.4727H7.49219V5.14258C7.49219 3.21484 7.79297 2.73633 9.22852 2.73633ZM9.41992 21.3574C7.82031 21.3574 7.49219 20.9883 7.49219 19.0332V11.9512H8.66797C11.9902 11.9512 13.3164 13.6055 13.3164 16.4492C13.3164 19.5938 12.1543 21.3574 9.41992 21.3574ZM24.9648 0.0839844C23.8027 0.357422 22.4355 0.466797 20.877 0.466797C20.3164 0.466797 19.7285 0.439453 19.1406 0.384766V0.972656C20.4941 0.972656 20.9316 1.76562 20.9316 3.44727V19.4023C20.9316 20.9609 20.4531 21.4121 19.1406 21.4121V22C19.8926 21.9727 21.5605 21.8906 23.0234 21.8906C24.4727 21.8906 26.0449 21.9727 26.7559 22V21.4121C25.457 21.4121 24.9648 20.9609 24.9648 19.4023V0.0839844ZM34.6719 7.125C32.7852 7.125 31.418 7.52148 30.4199 8.08203C29.5039 8.61523 28.8477 9.39453 28.8477 10.4199C28.8477 11.6504 29.6133 12.5801 30.8301 12.5801C32.2109 12.5801 33.1133 11.7324 33.1133 10.5703C33.1133 9.43555 32.457 8.71094 31.459 8.36914C31.9648 7.87695 32.7852 7.68555 33.4551 7.68555C35.1094 7.68555 35.7383 8.72461 35.7383 10.1875V12.375C35.7383 13.5781 34.125 14.1113 32.0605 14.8906C29.4629 15.8477 28.123 16.9824 28.123 19.0059C28.123 21.043 29.5723 22.1914 31.6641 22.1914C33.2363 22.1914 34.8359 21.4941 35.793 19.9219C35.8066 21.125 36.4355 22.1914 38.4863 22.1914C39.9082 22.1914 40.8379 21.8496 41.6855 21.166L41.3984 20.6875C41.084 20.9336 40.7695 21.166 40.373 21.166C39.9219 21.166 39.7715 20.8242 39.7715 19.9219V12.3066C39.7715 10.3516 39.5938 9.23047 38.7734 8.38281C37.8711 7.45312 36.4766 7.125 34.6719 7.125ZM35.7383 19.2656C35.1504 20.0996 34.5352 20.4004 33.8516 20.4004C32.8535 20.4004 32.1016 19.7715 32.1016 18.2266C32.1016 16.5449 33.0176 15.6289 34.002 14.9043C34.9453 14.3164 35.4785 13.9473 35.7383 13.5234V19.2656ZM49.752 7.125C45.7871 7.125 42.834 9.77734 42.834 14.8359C42.834 20.0859 45.7051 22.3965 49.3555 22.3965C52.5547 22.3965 54.2773 20.0723 54.9199 17.9805L54.4277 17.8027C53.293 19.6758 51.8027 20.0859 50.7637 20.0859C48.918 20.0859 47.0586 18.7871 47.0586 14.4395C47.0586 10.6387 48.2754 7.80859 50.5996 7.80859C51.3379 7.80859 51.9941 8.0957 52.2812 8.47852C51.2832 8.75195 50.4355 9.59961 50.4355 10.7754C50.4355 12.0332 51.2695 12.8535 52.5957 12.8535C53.8809 12.8535 54.8105 11.9238 54.8105 10.5977C54.8105 9.49023 54.209 8.56055 53.2656 7.98633C52.459 7.48047 51.2012 7.125 49.752 7.125ZM65.8848 12.1152L67.6895 10.2422C68.8516 9.08008 70.0137 8.32812 71.1895 8.06836V7.50781C70.5332 7.5625 68.9746 7.60352 67.9082 7.60352C67.0469 7.60352 65.666 7.5625 64.627 7.50781V8.06836C65.8711 8.13672 66.8008 8.68359 66.8008 9.55859C66.8008 10.0371 66.5137 10.6113 65.8574 11.2539L63.7383 13.332C63.2734 13.7969 62.7539 13.9746 62.043 14.0293V0.0839844C60.8809 0.357422 59.5273 0.466797 57.9551 0.466797C57.4082 0.466797 56.8203 0.439453 56.2324 0.384766V0.972656C57.5859 0.972656 58.0234 1.76562 58.0234 3.44727V19.4023C58.0234 20.9609 57.5312 21.4121 56.2324 21.4121V22C56.9707 21.9727 58.6387 21.8906 60.1016 21.8906C61.5098 21.8906 63.041 21.9727 63.7246 22V21.4121C62.5078 21.4121 62.043 20.9609 62.043 19.4023V14.5898C62.6582 14.6172 63.0273 14.7949 63.4238 15.4512L66.1992 20.4551C66.2812 20.6191 66.3359 20.7559 66.3359 20.8926C66.3359 21.207 66.0352 21.4121 65.4883 21.4121V22C66.1855 21.9727 67.7305 21.8906 69.1113 21.8906C70.2188 21.8906 71.4902 21.9727 72.0508 22V21.4121C71.3945 21.1934 71.0254 20.6328 70.5879 19.9492L65.8848 12.1152ZM92.3945 2.17578C91.9707 3.31055 91.6152 3.84375 91.2598 3.84375C91.123 3.84375 90.9863 3.76172 90.8496 3.59766C90.0156 2.66797 89.0039 1.7793 86.6934 1.7793C78.9141 1.7793 73.2949 8.90234 73.2949 15.4648C73.2949 19.8809 75.7422 22.3965 80.8145 22.3965C83.1387 22.3965 84.7793 21.6035 86.2969 20.5781C86.5293 20.4141 86.7207 20.332 86.8711 20.332C87.1035 20.332 87.2129 20.5645 87.2129 21.043C87.2129 21.3027 87.1855 21.6035 87.1309 22H87.7461C87.9922 20.5781 88.4707 18.6641 89.4004 15.2734H88.7852C87.8828 17.4609 87.2676 18.6504 86.2559 19.7031C85.1211 20.8926 83.4531 21.5488 82.0859 21.5488C79.7617 21.5488 78.2852 19.8125 78.2852 16.0117C78.2852 9.29883 82.4004 2.44922 87.0352 2.44922C88.4707 2.44922 89.6328 2.98242 90.3438 4.28125C90.6582 4.85547 90.7949 5.55273 90.7949 6.38672C90.7949 7.04297 90.7129 7.78125 90.5762 8.61523H91.1914C91.834 5.62109 92.4219 3.63867 92.9824 2.17578H92.3945ZM91.7246 17.7754C91.7246 20.7969 93.3652 22.3965 96.25 22.3965C102.375 22.3965 105.328 16.0254 105.328 11.7461C105.328 8.72461 103.674 7.13867 100.803 7.13867C94.6777 7.13867 91.7246 13.4961 91.7246 17.7754ZM100.652 7.68555C101.227 7.68555 101.568 8.0957 101.568 9.64062C101.568 15.0273 98.5332 21.8359 96.4277 21.8359C95.7852 21.8359 95.4707 21.2891 95.4707 19.9219C95.4707 14.7949 98.4922 7.68555 100.652 7.68555ZM126.383 0.0976562C124.865 0.0976562 123.498 0.535156 122.445 1.39648C122.145 1.64258 121.871 1.91602 121.611 2.23047C120.914 1.69727 119.861 1.21875 118.439 1.21875C116.594 1.21875 114.912 1.69727 113.518 2.77734C112.383 3.63867 111.303 5.2793 110.551 7.53516H107.83L107.652 8.0957H110.387L110.264 8.51953L105.219 27.2637C106.449 27.0176 107.693 26.8945 109.266 26.8672L114.338 8.0957H116.717L116.703 8.16406H119.027L113.9 27.2637C115.131 27.0176 116.389 26.8945 117.947 26.8672L122.965 8.16406H125.973L126.137 7.60352H123.115L123.717 5.36133C124.25 3.36523 124.715 1.82031 125.439 1.16406C125.822 0.822266 126.314 0.603516 126.902 0.603516C127.354 0.603516 127.709 0.78125 127.859 0.972656C126.533 1.4375 125.727 2.50391 125.727 3.73438C125.727 4.70508 126.424 5.23828 127.518 5.23828C129.035 5.23828 130.088 3.95312 130.088 2.77734C130.088 1.17773 128.707 0.0976562 126.383 0.0976562ZM117.25 7.60352L117.264 7.53516H114.488L114.625 7.0293C115.582 3.61133 116.908 1.95703 119.219 1.95703C120.135 1.95703 120.805 2.2168 121.297 2.61328C120.436 3.80273 119.766 5.41602 119.178 7.60352H117.25ZM137.826 9.35352C137.826 7.84961 136.568 7.13867 134.914 7.13867C129.09 7.13867 124.797 13.5508 124.797 18.4453C124.797 21.043 126.697 22.3965 129.186 22.3965C132.18 22.3965 134.49 20.5098 135.68 18.6367L135.242 18.418C133.766 20.1406 132.152 20.7148 131.154 20.7148C129.855 20.7148 128.994 20.0859 128.994 18.0078C128.994 17.3789 129.049 16.7363 129.158 16.0801C132.945 15.0684 137.826 12.7715 137.826 9.35352ZM134.299 7.6582C134.572 7.6582 134.75 7.86328 134.75 8.58789C134.75 10.6387 133.766 12.3887 132.344 13.6875C131.537 14.4121 130.457 15.0273 129.254 15.5605C130.074 11.582 132.604 7.6582 134.299 7.6582ZM150.979 9.35352C150.979 7.84961 149.721 7.13867 148.066 7.13867C142.242 7.13867 137.949 13.5508 137.949 18.4453C137.949 21.043 139.85 22.3965 142.338 22.3965C145.332 22.3965 147.643 20.5098 148.832 18.6367L148.395 18.418C146.918 20.1406 145.305 20.7148 144.307 20.7148C143.008 20.7148 142.146 20.0859 142.146 18.0078C142.146 17.3789 142.201 16.7363 142.311 16.0801C146.098 15.0684 150.979 12.7715 150.979 9.35352ZM147.451 7.6582C147.725 7.6582 147.902 7.86328 147.902 8.58789C147.902 10.6387 146.918 12.3887 145.496 13.6875C144.689 14.4121 143.609 15.0273 142.406 15.5605C143.227 11.582 145.756 7.6582 147.451 7.6582Z" fill="white"/>
</svg>
